<svg xmlns="http://www.w3.org/2000/svg" viewBox="0 0 199.03 169.42"><defs><style>.cls-1,.cls-3{fill:#f7c3ba;}.cls-1{opacity:0.3;}.cls-2{fill:#60483e;}.cls-12,.cls-4{fill:#d893a3;}.cls-11,.cls-4{opacity:0.5;}.cls-5{fill:#FB693C;}.cls-6{fill:#2a443e;}.cls-7{fill:#acb9a2;}.cls-8{fill:#3a6b5f;}.cls-9{fill:#f0e4d6;}.cls-10{fill:#d8c9bc;}.cls-13{fill:#ef7f9f;}.cls-14{fill:#8d9b81;}.cls-15{fill:#ca906a;}.cls-16{fill:#fff;}.cls-17{fill:#df9f70;}</style></defs><title>home-img</title><g id="Layer_2" data-name="Layer 2"><g id="OBJECTS"><rect class="cls-1" x="72.47" y="23.9" width="17.72" height="17.72"/><path class="cls-1" d="M72,23.42H54.28V10.86a100.16,100.16,0,0,1,12-5.16H72Z"/><rect class="cls-1" x="54.28" y="23.9" width="17.72" height="17.72"/><rect class="cls-1" x="90.66" y="23.9" width="17.72" height="17.72"/><rect class="cls-1" x="127.05" y="23.9" width="17.72" height="17.72"/><path class="cls-1" d="M132.78,5.7a100.45,100.45,0,0,1,12,5.16V23.42H127.05V5.7Z"/><rect class="cls-1" x="108.86" y="23.9" width="17.72" height="17.72"/><rect class="cls-1" x="54.28" y="42.1" width="17.72" height="17.72"/><path class="cls-1" d="M35.6,23.42h-.21l.21-.17Z"/><rect class="cls-1" x="36.07" y="42.1" width="17.72" height="17.72"/><rect class="cls-1" x="36.07" y="23.9" width="17.72" height="17.72"/><path class="cls-1" d="M53.79,11.11V23.42H36.07v-.58A99.88,99.88,0,0,1,53.79,11.11Z"/><rect class="cls-1" x="54.28" y="114.88" width="17.72" height="17.72"/><path class="cls-1" d="M163.45,59.81V42.1H180.8c.13.17.24.34.36.51v17.2Z"/><rect class="cls-1" x="90.66" y="114.88" width="17.72" height="17.72"/><rect class="cls-1" x="127.05" y="114.88" width="17.72" height="17.72"/><rect class="cls-1" x="72.47" y="114.88" width="17.72" height="17.72"/><rect class="cls-1" x="36.07" y="114.88" width="17.72" height="17.72"/><rect class="cls-1" x="145.25" y="114.88" width="17.72" height="17.72"/><rect class="cls-1" x="108.86" y="114.88" width="17.72" height="17.72"/><rect class="cls-1" x="54.28" y="60.29" width="17.72" height="17.73"/><rect class="cls-1" x="163.45" y="60.29" width="17.72" height="17.73"/><rect class="cls-1" x="145.25" y="78.49" width="17.72" height="17.72"/><rect class="cls-1" x="145.25" y="60.29" width="17.72" height="17.73"/><rect class="cls-1" x="145.25" y="96.68" width="17.72" height="17.72"/><rect class="cls-1" x="127.05" y="42.1" width="17.72" height="17.72"/><rect class="cls-1" x="90.66" y="60.29" width="17.72" height="17.73"/><rect class="cls-1" x="108.86" y="60.29" width="17.72" height="17.73"/><rect class="cls-1" x="36.07" y="96.68" width="17.72" height="17.72"/><rect class="cls-1" x="108.86" y="78.49" width="17.72" height="17.72"/><rect class="cls-1" x="90.66" y="78.49" width="17.72" height="17.72"/><rect class="cls-1" x="145.25" y="42.1" width="17.72" height="17.72"/><rect class="cls-1" x="72.47" y="78.49" width="17.72" height="17.72"/><rect class="cls-1" x="145.25" y="23.9" width="17.72" height="17.72"/><path class="cls-1" d="M35.6,41.62h-17A100.48,100.48,0,0,1,34.82,23.9h.78Z"/><path class="cls-1" d="M163.45,41.62V23.9h.77a100.48,100.48,0,0,1,16.25,17.72Z"/><path class="cls-1" d="M163.45,23.42v-.17l.19.17Z"/><path class="cls-1" d="M145.25,11.11A100.12,100.12,0,0,1,163,22.85v.57H145.25Z"/><rect class="cls-1" x="90.66" y="42.1" width="17.72" height="17.72"/><rect class="cls-1" x="108.86" y="96.68" width="17.72" height="17.72"/><rect class="cls-1" x="90.66" y="96.68" width="17.72" height="17.72"/><rect class="cls-1" x="54.28" y="96.68" width="17.72" height="17.72"/><rect class="cls-1" x="127.05" y="96.68" width="17.72" height="17.72"/><rect class="cls-1" x="72.47" y="96.68" width="17.72" height="17.72"/><rect class="cls-1" x="72.47" y="42.1" width="17.72" height="17.72"/><rect class="cls-1" x="127.05" y="78.49" width="17.72" height="17.72"/><rect class="cls-1" x="72.47" y="60.29" width="17.72" height="17.73"/><rect class="cls-1" x="54.28" y="78.49" width="17.72" height="17.72"/><rect class="cls-1" x="108.86" y="42.1" width="17.72" height="17.72"/><rect class="cls-1" x="127.05" y="60.29" width="17.72" height="17.73"/><rect class="cls-1" x="145.25" y="151.27" width="17.72" height="11.67"/><path class="cls-1" d="M181.64,96.68H199c0,.94,0,1.89,0,2.84V114.4H181.64Z"/><path class="cls-1" d="M17.4,59.81H8.24A99.77,99.77,0,0,1,17.4,43.3Z"/><path class="cls-1" d="M108.38,5.23H90.66V.4C93.58.14,96.53,0,99.52,0h0c3,0,5.94.14,8.86.4Z"/><rect class="cls-1" x="181.64" y="114.88" width="17.4" height="17.72"/><rect class="cls-1" x="181.64" y="151.27" width="17.4" height="11.67"/><rect class="cls-1" x="181.64" y="133.07" width="17.4" height="17.72"/><path class="cls-1" d="M17.4,60.29V78H2.34A98.35,98.35,0,0,1,8,60.29Z"/><rect class="cls-1" x="17.88" y="114.88" width="17.72" height="17.72"/><rect class="cls-1" x="17.88" y="96.68" width="17.72" height="17.72"/><rect class="cls-1" x="17.88" y="78.49" width="17.72" height="17.72"/><rect class="cls-1" x="163.45" y="151.27" width="17.72" height="11.67"/><path class="cls-1" d="M2.23,78.49H17.4V96.21H.06A100.3,100.3,0,0,1,2.23,78.49Z"/><rect class="cls-1" x="17.88" y="133.07" width="17.72" height="17.72"/><rect class="cls-1" x="127.05" y="151.27" width="17.72" height="11.67"/><rect class="cls-1" y="133.07" width="17.4" height="17.72"/><path class="cls-1" d="M17.4,96.68V114.4H0V99.52c0-1,0-1.9,0-2.84Z"/><rect class="cls-1" y="114.88" width="17.4" height="17.72"/><rect class="cls-1" x="17.88" y="151.27" width="17.72" height="11.67"/><rect class="cls-1" y="151.27" width="17.4" height="11.67"/><rect class="cls-1" x="108.86" y="151.27" width="17.72" height="11.67"/><rect class="cls-1" x="90.66" y="151.27" width="17.72" height="11.67"/><rect class="cls-1" x="54.28" y="151.27" width="17.72" height="11.67"/><rect class="cls-1" x="72.47" y="151.27" width="17.72" height="11.67"/><rect class="cls-1" x="36.07" y="151.27" width="17.72" height="11.67"/><rect class="cls-1" x="163.45" y="78.49" width="17.72" height="17.72"/><rect class="cls-1" x="108.86" y="5.7" width="17.72" height="17.72"/><path class="cls-1" d="M181.64,78V60.29H191A98.35,98.35,0,0,1,196.7,78Z"/><path class="cls-1" d="M126.58,3.73v1.5H108.86V.44A98.81,98.81,0,0,1,126.58,3.73Z"/><rect class="cls-1" x="72.47" y="5.7" width="17.72" height="17.72"/><path class="cls-1" d="M181.64,59.81V43.3a99,99,0,0,1,9.15,16.51Z"/><path class="cls-1" d="M127.05,5.23V3.86c1.48.43,2.94.88,4.38,1.37Z"/><rect class="cls-1" x="90.66" y="5.7" width="17.72" height="17.72"/><rect class="cls-1" x="36.07" y="133.07" width="17.72" height="17.72"/><rect class="cls-1" x="17.88" y="60.29" width="17.72" height="17.73"/><path class="cls-1" d="M72,5.23H67.6c1.45-.49,2.91-1,4.39-1.37Z"/><path class="cls-1" d="M18.23,42.1H35.6V59.81H17.88V42.6C18,42.43,18.11,42.26,18.23,42.1Z"/><path class="cls-1" d="M90.18,5.23H72.47V3.72A98.52,98.52,0,0,1,90.18.44Z"/><rect class="cls-1" x="36.07" y="60.29" width="17.72" height="17.73"/><rect class="cls-1" x="90.66" y="133.07" width="17.72" height="17.72"/><rect class="cls-1" x="108.86" y="133.07" width="17.72" height="17.72"/><rect class="cls-1" x="54.28" y="133.07" width="17.72" height="17.72"/><rect class="cls-1" x="72.47" y="133.07" width="17.72" height="17.72"/><rect class="cls-1" x="127.05" y="133.07" width="17.72" height="17.72"/><rect class="cls-1" x="145.25" y="133.07" width="17.72" height="17.72"/><rect class="cls-1" x="36.07" y="78.49" width="17.72" height="17.72"/><path class="cls-1" d="M181.64,96.21V78.49H196.8A98.46,98.46,0,0,1,199,96.21Z"/><rect class="cls-1" x="163.45" y="96.68" width="17.72" height="17.72"/><rect class="cls-1" x="163.45" y="133.07" width="17.72" height="17.72"/><rect class="cls-1" x="163.45" y="114.88" width="17.72" height="17.72"/><path class="cls-2" d="M99.6,18.42c-10.3,8.9-7.87,26.44,0,50.06,1.2,3.59,33.76.73,45.26-14.88,1.86-2.52-10.25-30.69-18.65-37.34C115.83,8,106,12.91,99.6,18.42Z"/><path class="cls-2" d="M99.29,18.56c-5.28,5-7.4,12.51-7.23,19.65a104.46,104.46,0,0,0,2,15.66,61,61,0,0,0,4.07,14.47.14.14,0,0,0,.26-.1,129.21,129.21,0,0,1-5.22-27.71C92.5,32.66,94.32,24.9,99.66,19,99.87,18.73,99.51,18.35,99.29,18.56Z"/><path class="cls-2" d="M133.76,23a23,23,0,0,0-19.55-11s0,.08,0,.09c9.17.65,15.68,5.55,20.25,13.27,5,8.39,8.64,17.33,12.16,26.4a.17.17,0,0,0,.32-.12A117.08,117.08,0,0,0,133.76,23Z"/><path class="cls-3" d="M75.58,144.51c5.49-1,24.8-13.46,32-20.95,6-6.24,11-25,12.52-36.54a45.21,45.21,0,0,0,.42-6.22c-.38-16-11.23-15.09-15.17-8.85a45,45,0,0,0-4.6,10.94c-3.54,11.84-4.9,25.93-6.25,27.4-1.82,2-22.64,22.41-25.17,25.57S70.08,145.54,75.58,144.51Z"/><path class="cls-4" d="M100.75,82.89A44.13,44.13,0,0,1,120.1,87a45.21,45.21,0,0,0,.42-6.22c-.38-16-11.23-15.09-15.17-8.85A45,45,0,0,0,100.75,82.89Z"/><path class="cls-5" d="M100.63,79.59c.43.87,11.84-2.06,20.79,8.47.83,1,2.56-11.42.62-17.71s-7.43-8.22-12.6-4.33S100,78.36,100.63,79.59Z"/><path class="cls-3" d="M73.88,131.49s-11,8-12.25,8.71-8.18.22-10.42,1.6-7.61,7.83-5.41,8.85,7.18.32,7.93-.47,4-5.38,5.23-5.45c3.45-.21,3.28,3.3,3.28,3.3,6.63.49,19.78-6.45,19.78-6.45A16.94,16.94,0,0,0,73.88,131.49Z"/><path class="cls-6" d="M178.52,163H107.15a145.28,145.28,0,0,1,11.94-32.62l34.86-9.3S173.91,134.53,178.52,163Z"/><path class="cls-7" d="M136.94,163h-1.35c-.37-3.1-.52-6.47-.67-9.87-4.82-.43-9.1-3.43-12.54-6.6-.26-.25.12-.62.38-.4,3.79,3.18,8.11,4.41,12.63,6.05a.43.43,0,0,1,.17.13.28.28,0,0,1,.16.19A65.25,65.25,0,0,1,136.94,163Z"/><path class="cls-5" d="M121,61.21c-5.24,1.49-8.56,7-11,12.56s-8,17-7.39,25.28c.46,6.44,10,12.42,10,12.42s4.38,15.63,6.47,18.88c3.13,4.88,23.74,10.5,35.35-8.1,1.2-1.92-1-38.12-7.71-50.12C141.44,62.66,133.44,57.69,121,61.21Z"/><path class="cls-8" d="M136.26,106.31c-3.52,1.58-6.32,3.8-10.37,4-3.49.13-6.86-1.07-10.06-2.32-.15-.06-.22.16-.1.24a17.75,17.75,0,0,0,10.64,3c3.95-.25,6.95-2.39,10-4.66A.15.15,0,0,0,136.26,106.31Z"/><path class="cls-8" d="M118.63,110.25a6.33,6.33,0,0,0-5.42-.35.14.14,0,0,0,.07.25,17.1,17.1,0,0,1,2.48-.13,13.4,13.4,0,0,1,2.69.67A.24.24,0,0,0,118.63,110.25Z"/><path class="cls-3" d="M129.89,60c1.94.28,3.85,4.26,3.78,5.41-.17,2.79-3.61,13-6.53,14.87S112.7,81.9,112,80.35s4.9-14.61,6.79-16S128.35,59.77,129.89,60Z"/><path class="cls-9" d="M105.45,163h67.39s-15.66-34-18.75-37.25a4.32,4.32,0,0,1-.59-.87h0a3.23,3.23,0,0,1,3.21-3.81c.77.25-1.72-4.21-2-4.45s-4,.4-4.73-2.16a.17.17,0,0,1,0-.05c-2.79-10.24-5.76-24.18-6.82-28.5-2.08-8.57-4.66-17.78-10.77-25.8-2.14-2.81-9.85-5.33-16.28,1.53-3.89,4.18-17.67,29.33-14.58,38.09s9.54,11.59,9.76,12.45,5,15,4.82,19.25S106.32,153.81,105.45,163Zm5.42-83.06c-.6-.94,6.43-16.92,9.47-18.71,2.1-1.22,8.71-1.48,9.89-.26s1.06,17.6-.64,18.25S111.47,80.87,110.87,79.92Z"/><path class="cls-10" d="M135.6,106.31c-3.52,1.58-6.32,3.8-10.37,4-3.49.13-6.86-1.07-10.06-2.32-.15-.06-.22.16-.1.24a17.75,17.75,0,0,0,10.64,3c4-.25,7-2.39,10-4.66A.15.15,0,0,0,135.6,106.31Z"/><path class="cls-10" d="M118,110.25a6.33,6.33,0,0,0-5.42-.35.14.14,0,0,0,.07.25,17.1,17.1,0,0,1,2.48-.13,13.4,13.4,0,0,1,2.69.67A.24.24,0,0,0,118,110.25Z"/><path class="cls-3" d="M116.91,67.66s1.11,3.15,4,2.71c5-.78,8-6,8.21-7.24a67.38,67.38,0,0,0-.88-9.3c-.07-.43-.13-.86-.2-1.29s-.15-.84-.23-1.25-.2-1.08-.31-1.61c-.78-4-1.49-7.48-1.49-7.48l-1.7,1.11-11.77,8.36,2.77,10.12.16.62.06.21.85,3.05v0Z"/><path class="cls-4" d="M115.47,62.41a10.82,10.82,0,0,0,5.21-.62c3.81-1.38,6-4.48,7.56-8-.07-.43-.13-.86-.2-1.29s-.15-.84-.23-1.25-.2-1.08-.31-1.61c-.78-4-1.49-7.48-1.49-7.48l-1.7,1.11-11.77,8.36,2.77,10.12Z"/><path class="cls-3" d="M97.34,42.58c5.19,17.85,15.48,15.93,18.66,15.55,3.62-.42,16.93-4.86,13.6-23.16s-13.27-21.53-21.38-19.61S92.14,24.72,97.34,42.58Z"/><path class="cls-6" d="M111.48,37.08c0-.06.15.05.16.12.26,1.56.85,3.31,2.48,3.56,0,0,.06.09,0,.09C112.21,40.93,111.46,38.6,111.48,37.08Z"/><path class="cls-6" d="M112.66,35c2.68-.72,3.91,4.69,1.43,5.36S110.41,35.64,112.66,35Z"/><path class="cls-6" d="M113.52,35c.52.08,1.13.37,1.64.2s.81-.87,1-1.5c0-.07.08,0,.1,0a1.86,1.86,0,0,1-.42,2.51,1.91,1.91,0,0,1-2.42-.8C113.27,35.3,113.31,35,113.52,35Z"/><path class="cls-6" d="M103.64,38.59c0-.06-.1.11-.08.17.6,1.48,1,3.27-.28,4.22,0,0,0,.1,0,.08C105,42.27,104.46,39.9,103.64,38.59Z"/><path class="cls-6" d="M101.61,37.51c-2.68.67-1.13,6,1.36,5.37S103.87,36.94,101.61,37.51Z"/><path class="cls-6" d="M100.81,38c-.38.36-.72,1-1.23,1.1s-1.16-.26-1.66-.68c0,0-.08,0-.07.07.17,1,.73,1.87,1.78,1.82s1.48-1,1.53-2C101.17,38.05,101,37.82,100.81,38Z"/><path class="cls-6" d="M100.77,36.38a10.23,10.23,0,0,0,1.12-.62,2.05,2.05,0,0,0,1-.86.65.65,0,0,0-.24-.77,1.63,1.63,0,0,0-1.65.11,2.44,2.44,0,0,0-1.2,1.27A.7.7,0,0,0,100.77,36.38Z"/><path class="cls-6" d="M113.66,33.43a10.93,10.93,0,0,1-1.28,0,2,2,0,0,1-1.31-.25.66.66,0,0,1-.17-.79,1.63,1.63,0,0,1,1.5-.71,2.41,2.41,0,0,1,1.66.52A.71.71,0,0,1,113.66,33.43Z"/><g class="cls-11"><path class="cls-12" d="M108.51,44.55a17.05,17.05,0,0,1,1.12,2.36c0,.07.24.05.53,0,0,0,0,0,0,0a3.2,3.2,0,0,0,2.91-2.38.09.09,0,0,0-.16-.08,4.66,4.66,0,0,1-2.82,1.87c-.13-.22-1-2.86-1.1-2.83a8,8,0,0,0-1.8,1c-.75-3.85-.86-7.81-1.67-11.63a.12.12,0,0,0-.24,0,63.26,63.26,0,0,0,1.26,12.62C106.66,46,108.22,44.8,108.51,44.55Z"/></g><path class="cls-4" d="M115,47.48c-.18.39-.32.88-.74,1.08a3.37,3.37,0,0,1-1.38.18,0,0,0,0,0,0,.08,1.69,1.69,0,0,0,1.75.07,1.33,1.33,0,0,0,.53-1.4C115.14,47.42,115,47.43,115,47.48Z"/><path class="cls-6" d="M109.63,46.93A5.22,5.22,0,0,0,112,48.05a2.32,2.32,0,0,0,1.4-.23c.94-.48.76-1.41.4-2.15a5.31,5.31,0,0,0-.72-1.11A6.69,6.69,0,0,1,109.63,46.93Z"/><path class="cls-13" d="M112,48.05a2.32,2.32,0,0,0,1.4-.23c.94-.48.76-1.41.4-2.15A2.39,2.39,0,0,0,112,48.05Z"/><path class="cls-3" d="M127.33,37.92S129,31,132,31.44s3.17,9.35.71,11.54a3.14,3.14,0,0,1-4.54-.06Z"/><path class="cls-4" d="M132,34s.08,0,0,.07c-1.71,1.6-2,3.89-2,6.12a1.73,1.73,0,0,1,2.25-1.38.07.07,0,0,1,0,.13,1.92,1.92,0,0,0-1.74,1.4,9.32,9.32,0,0,0-.33,2c0,.22-.39.25-.4,0v0C128.72,39.72,129.32,35.34,132,34Z"/><path class="cls-2" d="M129.17,34.26C127.23,35,120,32,115.81,22.87c0,0,4.33,7.89,5.47,8.82s-4-1.71-7.52-9A32.91,32.91,0,0,1,107.92,30c-3,2.51-5.2,3.42-5.56,3.27s4.06-4,4.74-6.22c0,0-7.37,8.39-11.49,10.6-.48.26-5.55-9.64-.85-16.86S112,13.57,116,15.05c0,0,3.51-1,9.25,2.31S131.26,33.48,129.17,34.26Z"/><rect class="cls-14" x="40.39" y="149.36" width="18.39" height="6.53" rx="2.85" transform="translate(99.18 305.25) rotate(-180)"/><rect class="cls-7" x="49.59" y="142.48" width="49.67" height="19.37" rx="7.11" transform="translate(148.85 304.33) rotate(-180)"/><rect class="cls-14" x="86.92" y="142.48" width="12.34" height="19.37" rx="5.98" transform="translate(186.18 304.33) rotate(-180)"/><rect class="cls-7" x="92.16" y="149.36" width="18.39" height="6.53" rx="2.85" transform="translate(202.71 305.25) rotate(-180)"/><path class="cls-9" d="M21.06,163h85.45c-3.72-3.29-9.08-2.68-13.83-2.87-3.67-.13-18-.68-21.57-.6a88.88,88.88,0,0,1-20.32-1.76c-5.65-1.17-11.29-2.57-17.08-2.94-5.08-.33-9.32.23-12.21,4.55C20.44,161,20.41,162.16,21.06,163Z"/><path class="cls-3" d="M119.79,151.31c5.42-1.36,39.79-16.65,46.54-24.56,6.32-7.42-3.81-34.8-9.54-46.58-.44-.9-.85-1.72-1.23-2.42-8.48-15.8-19-17.74-22.06-11-2.07,4.52.93,14.34,4.67,23.91,4.51,11.52,10.09,22.69,9.16,23.82-1.7,2.07-29.51,25.85-31.85,29.16S114.36,152.68,119.79,151.31Z"/><path class="cls-4" d="M138.17,90.64c5.44-4.93,11.39-9.68,18.62-10.47-.44-.9-.85-1.72-1.23-2.42-8.48-15.8-19-17.74-22.06-11C131.43,71.25,134.43,81.07,138.17,90.64Z"/><path class="cls-5" d="M155.06,74.92c-.24,1-12,.48-18.54,12.66-.6,1.13-4.9-10.62-4.33-17.18s5.53-9.6,11.41-6.89S155.4,73.6,155.06,74.92Z"/><path class="cls-3" d="M123,136.93s-11.43,7.33-12.75,8-8.18-.28-10.49,1-8.07,7.36-5.94,8.52,7.15.74,8,0,4.32-5.13,5.55-5.13c3.45,0,3.07,3.5,3.07,3.5,6.59.88,20.13-5.26,20.13-5.26A17,17,0,0,0,123,136.93Z"/><path class="cls-12" d="M162.05,121.74a1.8,1.8,0,0,1,2.58-.26,1.37,1.37,0,0,1-.4,2.26c-.73.33-1.64-.48-1.08-1.24.08-.11.25,0,.19.17-.21.5.46.72.77.45a.78.78,0,0,0,.21-.87.91.91,0,0,0-1.12-.47,1.35,1.35,0,0,0-.95.93,1.83,1.83,0,0,0,.36,1.4c.06.1-.07.23-.15.17A1.81,1.81,0,0,1,162.05,121.74Z"/><rect class="cls-15" y="162.97" width="199.03" height="6.45" transform="translate(199.03 332.39) rotate(-180)"/><rect class="cls-16" x="130.53" y="125" width="24.52" height="37.97" transform="translate(285.58 287.98) rotate(-180)"/><polygon class="cls-7" points="155.05 125 149.68 120.51 135.47 120.51 130.53 125 155.05 125"/><rect class="cls-7" x="135.47" y="116.57" width="14.24" height="3.94" transform="translate(285.19 237.08) rotate(-180)"/><rect class="cls-17" x="130.53" y="138.45" width="24.52" height="14.67" transform="translate(285.58 291.58) rotate(-180)"/><path class="cls-3" d="M160.22,161.55c-5.22,0-6.49-4.88-6.22-8.08s3.17-10,6.22-10,5.95,6.8,6.22,10S165.44,161.55,160.22,161.55Z"/><path class="cls-3" d="M146.13,161.55c-5.23,0-6.5-4.88-6.23-8.08s3.18-10,6.23-10,5.94,6.8,6.21,10S151.34,161.55,146.13,161.55Z"/><path class="cls-3" d="M174.32,161.55c-5.22,0-6.49-4.88-6.23-8.08s3.18-10,6.23-10,6,6.8,6.22,10S179.53,161.55,174.32,161.55Z"/><path class="cls-3" d="M188.42,161.55c-5.23,0-6.5-4.88-6.23-8.08s3.18-10,6.23-10,6,6.8,6.21,10S193.63,161.55,188.42,161.55Z"/><path class="cls-5" d="M153.17,152.71s-.91,11-7,11-7.06-11-7.06-11Z"/><path class="cls-5" d="M167.27,152.71s-.91,11-7.05,11-7.05-11-7.05-11Z"/><path class="cls-5" d="M181.36,152.71s-.9,11-7,11-7-11-7-11Z"/><path class="cls-5" d="M195.46,152.71s-.91,11-7,11-7.06-11-7.06-11Z"/><path class="cls-17" d="M11.78,135.13H2.19a.91.91,0,0,0-.89,1.07l2.84,15.48a.9.9,0,0,0,.89.74h.16a.91.91,0,0,0,.91-.94l-.38-11.39a.91.91,0,0,1,.91-.94h5.15Z"/><path class="cls-17" d="M11.24,163.05H32.46s3.28-21.36,3.49-22,3.7-2.64,3.91-3.17a8.87,8.87,0,0,0,0-2.75H8.14Z"/></g></g></svg>