<svg width="205" height="98" viewBox="0 0 205 98" fill="none" xmlns="http://www.w3.org/2000/svg">
<path d="M34.0403 87.1878C8.83598 87.1878 2.70389 63.6548 4.00756 48.2234C5.31123 32.7919 19.3136 0 34.0403 0C48.767 0 62.7694 32.7919 64.0731 48.2234C65.3768 63.6548 59.2447 87.1878 34.0403 87.1878Z" fill="#F7C3BA"/>
<path d="M102.121 87.1878C76.9167 87.1878 70.7846 63.6548 72.0399 48.2234C73.2953 32.7919 87.3944 0 102.121 0C116.848 0 131.091 32.7919 132.154 48.2234C133.216 63.6548 127.277 87.1878 102.121 87.1878Z" fill="#F7C3BA"/>
<path d="M170.202 87.1878C144.949 87.1878 138.817 63.6548 140.121 48.2234C141.424 32.7919 155.475 0 170.202 0C184.928 0 199.172 32.7919 200.186 48.2234C201.2 63.6548 195.358 87.1878 170.202 87.1878Z" fill="#F7C3BA"/>
<path d="M68.0807 44.5584C68.0807 44.5584 63.6868 97.6041 34.0404 97.6041C4.39388 97.6041 0 44.5584 0 44.5584H68.0807Z" fill="#FB693C"/>
<path d="M136.113 44.5584C136.113 44.5584 131.767 97.6041 102.314 97.6041C72.8607 97.6041 68.5151 44.5584 68.5151 44.5584H136.113Z" fill="#FB693C"/>
<path d="M204.194 44.5584C204.194 44.5584 199.8 97.6041 170.395 97.6041C140.99 97.6041 136.306 44.5584 136.306 44.5584H204.194Z" fill="#FB693C"/>
</svg>
